<svg xmlns="http://www.w3.org/2000/svg" version="1.1" xmlns:xlink="http://www.w3.org/1999/xlink" width="512" height="512" x="0" y="0" viewBox="0 0 512 511" style="enable-background:new 0 0 512 512" xml:space="preserve" class=""><g><path d="M60.273 318.582 46.2 338.684a14.95 14.95 0 0 0-2.086 4.332L30.59 388.484a14.982 14.982 0 0 0 5.77 16.559 14.985 14.985 0 0 0 17.535-.238l37.925-28.133c-18.41-13.031-30.558-34.106-31.547-58.09zM497 180.516h-45.004v224.996c0 11.152 11.734 18.406 21.711 13.418l32.227-23.903A14.999 14.999 0 0 0 512 382.98V195.516c0-8.286-6.715-15-15-15zM299.41 3.219c-6.793-4.758-16.137-3.11-20.894 3.683l-25.813 36.864 49.152 34.418 25.813-36.864c4.758-6.793 3.11-16.136-3.684-20.894zM112.195 244.434c7.227-2.325 14.785-3.918 22.774-3.918h53.219l96.46-137.758-49.152-34.418zM107.445 118.078a44.808 44.808 0 0 0-20.07 17.152L4.707 265.395c-10.36 20.73-3.008 45.558 16.074 57.816.348-.547.461-1.191.832-1.723L182.875 91.176c-6.02-.363-12.172.02-18.371 2.113zM119.969 389.012v9.02c0 12.425 10.074 22.5 22.504 22.5 12.425 0 22.5-10.075 22.5-22.5v-7.5h-30.004a75.085 75.085 0 0 1-15-1.52zM194.977 390.531v7.5c0 12.426 10.074 22.5 22.5 22.5 11.007 0 19.746-8.058 21.695-18.504-4.887-2.023-9.852-3.851-14.59-6.195l-10.402-5.305h-19.203zm0 0" fill="#ffffff" opacity="1" data-original="#000000" class=""></path><path d="M421.992 180.516h-27.531l-95.324-46.153-73.399 104.832c18.25-2.836 35.504-11.148 48.637-24.285 5.86-5.86 15.355-5.86 21.215 0s5.86 15.356 0 21.215c-21.86 21.855-52.125 34.398-83.035 34.398h-77.582c-24.032 0-45.004 19.516-45.004 45 0 24.907 20.101 45.004 45.004 45.004h86.406c7.203 2.817 47.281 30.004 108.61 30.004 31.038 0 64.03-7.254 92.003-20.707zm0 0" fill="#ffffff" opacity="1" data-original="#000000" class=""></path></g></svg>